<?xml version="1.0" encoding="utf-8"?>
<!-- Generator: Adobe Illustrator 25.2.1, SVG Export Plug-In . SVG Version: 6.00 Build 0)  -->
<svg version="1.1" id="Layer_1" xmlns="http://www.w3.org/2000/svg" xmlns:xlink="http://www.w3.org/1999/xlink" x="0px" y="0px"
	 viewBox="0 0 36 36" style="enable-background:new 0 0 36 36;" xml:space="preserve">
<style type="text/css">
	.st0{fill:#FFFFFF;}
	.st1{fill:#EA4335;}
	.st2{fill:#FBBC05;}
	.st3{fill:#4285F4;}
	.st4{fill:#34A853;}
</style>
<g>
	<path class="st0" d="M12.5,1C8.1,2.5,4.4,5.8,2.3,9.9c-0.7,1.4-1.2,3-1.6,4.5c-0.8,3.9-0.2,8.1,1.6,11.6c1.2,2.3,2.9,4.4,4.9,6
		c1.9,1.5,4.2,2.7,6.5,3.3c3,0.8,6.2,0.8,9.2,0.1c2.7-0.6,5.3-1.9,7.4-3.8c2.2-2,3.7-4.6,4.6-7.5c0.9-3.1,1-6.4,0.5-9.6
		c-5.6,0-11.3,0-16.9,0c0,2.3,0,4.7,0,7c3.3,0,6.5,0,9.8,0c-0.4,2.2-1.7,4.3-3.6,5.6c-1.2,0.8-2.6,1.3-4,1.6c-1.4,0.2-2.9,0.3-4.3,0
		c-1.4-0.3-2.8-0.9-4-1.7c-1.9-1.3-3.4-3.3-4.1-5.5c-0.8-2.3-0.8-4.8,0-7c0.5-1.6,1.4-3,2.6-4.2c1.5-1.5,3.3-2.6,5.4-3
		c1.7-0.4,3.6-0.3,5.3,0.2c1.5,0.4,2.8,1.2,3.9,2.3c1.1-1.1,2.2-2.2,3.3-3.3c0.6-0.6,1.2-1.2,1.8-1.8c-1.7-1.5-3.6-2.8-5.8-3.6
		C20.7-0.3,16.4-0.4,12.5,1z"/>
	<g>
		<path class="st1" d="M12.5,1c3.9-1.3,8.3-1.3,12.1,0.1c2.1,0.8,4.1,2,5.8,3.6c-0.6,0.6-1.2,1.2-1.8,1.8c-1.1,1.1-2.2,2.2-3.3,3.3
			c-1.1-1-2.4-1.8-3.9-2.3c-1.7-0.5-3.5-0.6-5.3-0.2c-2,0.4-3.9,1.5-5.4,3c-1.2,1.2-2.1,2.7-2.6,4.2c-2-1.5-3.9-3-5.9-4.6
			C4.4,5.8,8.1,2.5,12.5,1z"/>
	</g>
	<g>
		<path class="st2" d="M0.7,14.4c0.3-1.6,0.8-3.1,1.6-4.5c2,1.5,3.9,3,5.9,4.6c-0.8,2.3-0.8,4.8,0,7c-2,1.5-3.9,3.1-5.9,4.6
			C0.5,22.5-0.1,18.3,0.7,14.4z"/>
	</g>
	<g>
		<path class="st3" d="M18.4,14.6c5.6,0,11.3,0,16.9,0c0.6,3.2,0.4,6.5-0.5,9.6c-0.8,2.8-2.4,5.5-4.6,7.5c-1.9-1.5-3.8-3-5.7-4.4
			c1.9-1.3,3.2-3.3,3.6-5.6c-3.3,0-6.5,0-9.8,0C18.4,19.3,18.4,17,18.4,14.6z"/>
	</g>
	<g>
		<path class="st4" d="M2.3,26.1c2-1.5,3.9-3,5.9-4.6c0.8,2.2,2.2,4.2,4.1,5.5c1.2,0.8,2.6,1.4,4,1.7c1.4,0.3,2.9,0.3,4.3,0
			c1.4-0.3,2.8-0.8,4-1.6c1.9,1.5,3.8,3,5.7,4.4c-2.1,1.9-4.6,3.2-7.4,3.8c-3,0.7-6.2,0.7-9.2-0.1c-2.4-0.6-4.6-1.8-6.5-3.3
			C5.1,30.5,3.4,28.4,2.3,26.1z"/>
	</g>
</g>
</svg>
