<?xml version="1.0" encoding="utf-8"?>
<!-- Generator: Adobe Illustrator 25.2.1, SVG Export Plug-In . SVG Version: 6.00 Build 0)  -->
<svg version="1.1" id="Layer_1" xmlns="http://www.w3.org/2000/svg" xmlns:xlink="http://www.w3.org/1999/xlink" x="0px" y="0px"
	 viewBox="0 0 36 36" style="enable-background:new 0 0 36 36;" xml:space="preserve">
<style type="text/css">
	.st0{fill:#E2562B;}
</style>
<path class="st0" d="M17.9,0C8.1,0,0,8.1,0,18c0,10,8.1,18.1,18,18c10,0,18-8,18-18C36,8,27.9,0,17.9,0z M24.4,29h-3.8V10.1
	c-1.6-0.1-3.1-0.1-4.5,0.6c-1,0.5-1.6,1.3-1.8,2.4c-0.3,2,0.3,3.7,1.8,5.2c1.4,1.3,2.1,1.6,3.3,2.5c-0.5,0.8-1,1.7-1.6,2.5
	c-0.3,0.4-0.6,0.9-0.9,1.4c-0.8,1.2-1.5,2.3-2.2,3.5c-0.1,0.1-0.1,0.2-0.2,0.2c-0.1,0.2-0.2,0.3-0.3,0.5c0,0-0.3,0-0.6,0
	c-0.1,0-0.2,0-0.3,0c0,0-0.1,0-0.1,0c-1,0-2.5,0-3.3,0c1.7-2.6,3.3-4.9,4.9-7.3c-1-0.7-1.6-1.3-2.4-2c-2.7-2.7-2.7-8.7,0.8-11
	c1.7-1.1,3.6-1.4,5.5-1.5c0.6,0,1.2,0,1.8,0v0h3.8C24.3,7.1,24.3,29,24.4,29z"/>
</svg>
